Fast And Furious 4 2009 1080p Rip med danske undertekster.
Det er i mp4 format så det er lige til at smide på ens ps3 mm. :)


Trailer : http://www.lovefilm.dk/film/Fast-&-Furious/50942/


En forbrydelse bringer flygtningen og eksfangen Dom Toretto tilbage til L. A., hvor han igen krydser klinger med agent Brian O’Conner. Men da de konfronteres med en fælles fjende, søger de hævn på den ultimative måde - ved at flytte grænserne for, hvad der er muligt bag rattet! I denne nye, højoktane actionthriller vender Vin Diesel og Paul Walker tilbage til de gader, hvor det hele begyndte, og slår sig igen sammen med Michelle Rodriguez og Jordana Brewster for at fræse gennem Los Angeles og den mexicanske ørken i deres kraftige, tunede og eksotiske biler. 


Media Info:


General
Format                           : MPEG-4
Format profile                   : Base Media / Version 2
Codec ID                         : mp42
File size                        : 8.32 GiB
Duration                         : 1h 46mn
Overall bit rate                 : 11.2 Mbps
Encoded date                     : UTC 2011-09-01 18:21:11
Tagged date                      : UTC 2011-09-01 19:03:13

Video
ID                               : 1
Format                           : AVC
Format/Info                      : Advanced Video Codec
Format profile                   : High@L4.1
Format settings, CABAC           : Yes
Format settings, ReFrames        : 2 frames
Codec ID                         : avc1
Codec ID/Info                    : Advanced Video Coding
Duration                         : 1h 46mn
Bit rate mode                    : Variable
Bit rate                         : 10.7 Mbps
Width                            : 1 920 pixels
Height                           : 800 pixels
Display aspect ratio             : 2.40:1
Frame rate mode                  : Variable
Frame rate                       : 23.976 fps
Minimum frame rate               : 23.974 fps
Maximum frame rate               : 23.981 fps
Color space                      : YUV
Chroma subsampling               : 4:2:0
Bit depth                        : 8 bits
Scan type                        : Progressive
Bits/(Pixel*Frame)               : 0.290
Stream size                      : 7.96 GiB (96%)
Writing library                  : x264 core
Encoded date                     : UTC 2011-09-01 18:21:11
Tagged date                      : UTC 2011-09-01 19:03:06
Color primaries                  : BT.709-5, BT.1361, IEC 61966-2-4, SMPTE RP177
Transfer characteristics         : BT.709-5, BT.1361
Matrix coefficients              : BT.709-5, BT.1361, IEC 61966-2-4 709, SMPTE RP177

Audio
ID                               : 2
Format                           : AAC
Format/Info                      : Advanced Audio Codec
Format profile                   : LC
Codec ID                         : 40
Duration                         : 1h 46mn
Bit rate mode                    : Variable
Bit rate                         : 484 Kbps
Maximum bit rate                 : 658 Kbps
Channel(s)                       : 6 channels
Channel positions                : Front: L C R, Side: L R, LFE
Sampling rate                    : 48.0 KHz
Compression mode                 : Lossy
Stream size                      : 369 MiB (4%)
Encoded date                     : UTC 2011-09-01 18:21:11
Tagged date                      : UTC 2011-09-01 19:02:54

